<?xml version="1.0" encoding="UTF-8" standalone="no"?>
<!DOCTYPE svg PUBLIC "-//W3C//DTD SVG 1.1//EN"
 "http://www.w3.org/Graphics/SVG/1.1/DTD/svg11.dtd">
<!-- Generated by graphviz version 11.0.0 (20240428.1522)
 -->
<!-- Pages: 1 -->
<svg width="1620pt" height="270pt"
 viewBox="0.00 0.00 1620.00 269.50" xmlns="http://www.w3.org/2000/svg" xmlns:xlink="http://www.w3.org/1999/xlink">
<g id="graph0" class="graph" transform="scale(1 1) rotate(0) translate(4 265.5)">
<polygon fill="white" stroke="none" points="-4,4 -4,-265.5 1616,-265.5 1616,4 -4,4"/>
<g id="clust1" class="cluster">
<title>cluster_User</title>
<polygon fill="none" stroke="black" points="8,-177 8,-253.5 540,-253.5 540,-177 8,-177"/>
<text text-anchor="middle" x="274" y="-236.2" font-family="Times,serif" font-size="14.00">User</text>
</g>
<g id="clust2" class="cluster">
<title>cluster_Channel</title>
<polygon fill="none" stroke="black" points="548,-177 548,-253.5 738,-253.5 738,-177 548,-177"/>
<text text-anchor="middle" x="643" y="-236.2" font-family="Times,serif" font-size="14.00">Channel</text>
</g>
<g id="clust3" class="cluster">
<title>cluster_Role</title>
<polygon fill="none" stroke="black" points="754,-92.5 754,-169 836,-169 836,-92.5 754,-92.5"/>
<text text-anchor="middle" x="795" y="-151.7" font-family="Times,serif" font-size="14.00">Role</text>
</g>
<g id="clust4" class="cluster">
<title>cluster_ChannelRole</title>
<polygon fill="none" stroke="black" points="1253,-92.5 1253,-169 1423,-169 1423,-92.5 1253,-92.5"/>
<text text-anchor="middle" x="1338" y="-151.7" font-family="Times,serif" font-size="14.00">ChannelRole</text>
</g>
<g id="clust5" class="cluster">
<title>cluster_Deny</title>
<polygon fill="none" stroke="black" points="1389,-8 1389,-84.5 1497,-84.5 1497,-8 1389,-8"/>
<text text-anchor="middle" x="1443" y="-67.2" font-family="Times,serif" font-size="14.00">Deny</text>
</g>
<g id="clust6" class="cluster">
<title>cluster_Roles</title>
<polygon fill="none" stroke="black" points="746,-177 746,-253.5 940,-253.5 940,-177 746,-177"/>
<text text-anchor="middle" x="843" y="-236.2" font-family="Times,serif" font-size="14.00">Roles</text>
</g>
<g id="clust7" class="cluster">
<title>cluster_ChannelRoles</title>
<polygon fill="none" stroke="black" points="948,-177 948,-253.5 1604,-253.5 1604,-177 948,-177"/>
<text text-anchor="middle" x="1276" y="-236.2" font-family="Times,serif" font-size="14.00">ChannelRoles</text>
</g>
<g id="clust8" class="cluster">
<title>cluster_Allow</title>
<polygon fill="none" stroke="black" points="802,-8 802,-84.5 910,-84.5 910,-8 802,-8"/>
<text text-anchor="middle" x="856" y="-67.2" font-family="Times,serif" font-size="14.00">Allow</text>
</g>
<!-- User::&quot;yihong&#45;general&quot; -->
<g id="node1" class="node">
<title>User::&quot;yihong&#45;general&quot;</title>
<polygon fill="none" stroke="black" points="113.88,-221 16.12,-221 16.12,-185 113.88,-185 113.88,-221"/>
<text text-anchor="middle" x="65" y="-197.95" font-family="Times,serif" font-size="14.00">yihong&#45;general</text>
</g>
<!-- User::&quot;yihong&#45;announcements&quot; -->
<g id="node2" class="node">
<title>User::&quot;yihong&#45;announcements&quot;</title>
<polygon fill="none" stroke="black" points="274.38,-221 131.62,-221 131.62,-185 274.38,-185 274.38,-221"/>
<text text-anchor="middle" x="203" y="-197.95" font-family="Times,serif" font-size="14.00">yihong&#45;announcements</text>
</g>
<!-- User::&quot;oflatt&#45;announcements&quot; -->
<g id="node3" class="node">
<title>User::&quot;oflatt&#45;announcements&quot;</title>
<polygon fill="none" stroke="black" points="425.88,-221 292.12,-221 292.12,-185 425.88,-185 425.88,-221"/>
<text text-anchor="middle" x="359" y="-197.95" font-family="Times,serif" font-size="14.00">oflatt&#45;announcements</text>
</g>
<!-- User::&quot;oflatt&#45;general&quot; -->
<g id="node4" class="node">
<title>User::&quot;oflatt&#45;general&quot;</title>
<polygon fill="none" stroke="black" points="532.38,-221 443.62,-221 443.62,-185 532.38,-185 532.38,-221"/>
<text text-anchor="middle" x="488" y="-197.95" font-family="Times,serif" font-size="14.00">oflatt&#45;general</text>
</g>
<!-- Channel::&quot;announcements&quot; -->
<g id="node5" class="node">
<title>Channel::&quot;announcements&quot;</title>
<polygon fill="none" stroke="black" points="656.38,-221 555.62,-221 555.62,-185 656.38,-185 656.38,-221"/>
<text text-anchor="middle" x="606" y="-197.95" font-family="Times,serif" font-size="14.00">announcements</text>
</g>
<!-- Channel::&quot;general&quot; -->
<g id="node6" class="node">
<title>Channel::&quot;general&quot;</title>
<polygon fill="none" stroke="black" points="729.88,-221 674.12,-221 674.12,-185 729.88,-185 729.88,-221"/>
<text text-anchor="middle" x="702" y="-197.95" font-family="Times,serif" font-size="14.00">general</text>
</g>
<!-- Role::&quot;everyone&quot; -->
<g id="node7" class="node">
<title>Role::&quot;everyone&quot;</title>
<polygon fill="none" stroke="black" points="827.75,-136.5 762.25,-136.5 762.25,-100.5 827.75,-100.5 827.75,-136.5"/>
<text text-anchor="middle" x="795" y="-113.45" font-family="Times,serif" font-size="14.00">everyone</text>
</g>
<!-- Allow::&quot;SendMessage&quot; -->
<g id="node16" class="node">
<title>Allow::&quot;SendMessage&quot;</title>
<polygon fill="none" stroke="black" points="901.5,-52 810.5,-52 810.5,-16 901.5,-16 901.5,-52"/>
<text text-anchor="middle" x="856" y="-28.95" font-family="Times,serif" font-size="14.00">SendMessage</text>
</g>
<!-- Role::&quot;everyone&quot;&#45;&gt;Allow::&quot;SendMessage&quot; -->
<g id="edge1" class="edge">
<title>Role::&quot;everyone&quot;&#45;&gt;Allow::&quot;SendMessage&quot;</title>
<path fill="none" stroke="black" d="M807.94,-100C816.19,-88.85 827.04,-74.17 836.34,-61.59"/>
<polygon fill="black" stroke="black" points="839.05,-63.81 842.18,-53.69 833.42,-59.65 839.05,-63.81"/>
</g>
<!-- ChannelRole::&quot;everyone&#45;announcements&quot; -->
<g id="node8" class="node">
<title>ChannelRole::&quot;everyone&#45;announcements&quot;</title>
<polygon fill="none" stroke="black" points="1415.38,-136.5 1260.62,-136.5 1260.62,-100.5 1415.38,-100.5 1415.38,-136.5"/>
<text text-anchor="middle" x="1338" y="-113.45" font-family="Times,serif" font-size="14.00">everyone&#45;announcements</text>
</g>
<!-- Deny::&quot;SendMessage&quot; -->
<g id="node9" class="node">
<title>Deny::&quot;SendMessage&quot;</title>
<polygon fill="none" stroke="black" points="1488.5,-52 1397.5,-52 1397.5,-16 1488.5,-16 1488.5,-52"/>
<text text-anchor="middle" x="1443" y="-28.95" font-family="Times,serif" font-size="14.00">SendMessage</text>
</g>
<!-- ChannelRole::&quot;everyone&#45;announcements&quot;&#45;&gt;Deny::&quot;SendMessage&quot; -->
<g id="edge4" class="edge">
<title>ChannelRole::&quot;everyone&#45;announcements&quot;&#45;&gt;Deny::&quot;SendMessage&quot;</title>
<path fill="none" stroke="black" d="M1360.27,-100C1375.3,-88.19 1395.35,-72.44 1411.95,-59.39"/>
<polygon fill="black" stroke="black" points="1413.87,-62.34 1419.57,-53.41 1409.55,-56.83 1413.87,-62.34"/>
</g>
<!-- Roles::&quot;yihong&#45;roles&quot; -->
<g id="node10" class="node">
<title>Roles::&quot;yihong&#45;roles&quot;</title>
<polygon fill="none" stroke="black" points="838.12,-221 753.88,-221 753.88,-185 838.12,-185 838.12,-221"/>
<text text-anchor="middle" x="796" y="-197.95" font-family="Times,serif" font-size="14.00">yihong&#45;roles</text>
</g>
<!-- Roles::&quot;yihong&#45;roles&quot;&#45;&gt;Role::&quot;everyone&quot; -->
<g id="edge2" class="edge">
<title>Roles::&quot;yihong&#45;roles&quot;&#45;&gt;Role::&quot;everyone&quot;</title>
<path fill="none" stroke="black" d="M795.79,-184.5C795.66,-174 795.5,-160.39 795.35,-148.33"/>
<polygon fill="black" stroke="black" points="798.85,-148.44 795.23,-138.48 791.85,-148.53 798.85,-148.44"/>
</g>
<!-- Roles::&quot;yihong&#45;roles&quot;&#45;&gt;Allow::&quot;SendMessage&quot; -->
<g id="edge3" class="edge">
<title>Roles::&quot;yihong&#45;roles&quot;&#45;&gt;Allow::&quot;SendMessage&quot;</title>
<path fill="none" stroke="black" d="M826.19,-184.59C831.58,-180.17 836.57,-174.96 840,-169 858.74,-136.5 860.3,-92.23 858.83,-63.63"/>
<polygon fill="black" stroke="black" points="862.34,-63.66 858.17,-53.92 855.36,-64.14 862.34,-63.66"/>
</g>
<!-- Roles::&quot;oflatt&#45;roles&quot; -->
<g id="node11" class="node">
<title>Roles::&quot;oflatt&#45;roles&quot;</title>
<polygon fill="none" stroke="black" points="931.62,-221 856.38,-221 856.38,-185 931.62,-185 931.62,-221"/>
<text text-anchor="middle" x="894" y="-197.95" font-family="Times,serif" font-size="14.00">oflatt&#45;roles</text>
</g>
<!-- Roles::&quot;oflatt&#45;roles&quot;&#45;&gt;Role::&quot;everyone&quot; -->
<g id="edge11" class="edge">
<title>Roles::&quot;oflatt&#45;roles&quot;&#45;&gt;Role::&quot;everyone&quot;</title>
<path fill="none" stroke="black" d="M873,-184.5C858.96,-172.8 840.27,-157.23 824.71,-144.26"/>
<polygon fill="black" stroke="black" points="827.05,-141.65 817.13,-137.94 822.57,-147.03 827.05,-141.65"/>
</g>
<!-- Roles::&quot;oflatt&#45;roles&quot;&#45;&gt;Allow::&quot;SendMessage&quot; -->
<g id="edge10" class="edge">
<title>Roles::&quot;oflatt&#45;roles&quot;&#45;&gt;Allow::&quot;SendMessage&quot;</title>
<path fill="none" stroke="black" d="M890.3,-184.52C885.69,-162.89 877.5,-124.92 870,-92.5 867.8,-83 865.31,-72.64 863.04,-63.36"/>
<polygon fill="black" stroke="black" points="866.48,-62.68 860.69,-53.81 859.68,-64.35 866.48,-62.68"/>
</g>
<!-- Role::&quot;owner&quot; -->
<g id="node17" class="node">
<title>Role::&quot;owner&quot;</title>
<polygon fill="none" stroke="black" points="1016.38,-136.5 921.62,-136.5 921.62,-100.5 1016.38,-100.5 1016.38,-136.5"/>
<text text-anchor="middle" x="969" y="-113.45" font-family="Times,serif" font-size="14.00">Role::&quot;owner&quot;</text>
</g>
<!-- Roles::&quot;oflatt&#45;roles&quot;&#45;&gt;Role::&quot;owner&quot; -->
<g id="edge9" class="edge">
<title>Roles::&quot;oflatt&#45;roles&quot;&#45;&gt;Role::&quot;owner&quot;</title>
<path fill="none" stroke="black" d="M909.91,-184.5C920.25,-173.13 933.91,-158.1 945.5,-145.35"/>
<polygon fill="black" stroke="black" points="947.96,-147.84 952.1,-138.09 942.78,-143.14 947.96,-147.84"/>
</g>
<!-- ChannelRoles::&quot;yihong&#45;general&#45;roles&quot; -->
<g id="node12" class="node">
<title>ChannelRoles::&quot;yihong&#45;general&#45;roles&quot;</title>
<polygon fill="none" stroke="black" points="1084.25,-221 955.75,-221 955.75,-185 1084.25,-185 1084.25,-221"/>
<text text-anchor="middle" x="1020" y="-197.95" font-family="Times,serif" font-size="14.00">yihong&#45;general&#45;roles</text>
</g>
<!-- ChannelRoles::&quot;oflatt&#45;general&#45;roles&quot; -->
<g id="node13" class="node">
<title>ChannelRoles::&quot;oflatt&#45;general&#45;roles&quot;</title>
<polygon fill="none" stroke="black" points="1221.75,-221 1102.25,-221 1102.25,-185 1221.75,-185 1221.75,-221"/>
<text text-anchor="middle" x="1162" y="-197.95" font-family="Times,serif" font-size="14.00">oflatt&#45;general&#45;roles</text>
</g>
<!-- ChannelRoles::&quot;yihong&#45;announcements&#45;roles&quot; -->
<g id="node14" class="node">
<title>ChannelRoles::&quot;yihong&#45;announcements&#45;roles&quot;</title>
<polygon fill="none" stroke="black" points="1413.75,-221 1240.25,-221 1240.25,-185 1413.75,-185 1413.75,-221"/>
<text text-anchor="middle" x="1327" y="-197.95" font-family="Times,serif" font-size="14.00">yihong&#45;announcements&#45;roles</text>
</g>
<!-- ChannelRoles::&quot;yihong&#45;announcements&#45;roles&quot;&#45;&gt;ChannelRole::&quot;everyone&#45;announcements&quot; -->
<g id="edge6" class="edge">
<title>ChannelRoles::&quot;yihong&#45;announcements&#45;roles&quot;&#45;&gt;ChannelRole::&quot;everyone&#45;announcements&quot;</title>
<path fill="none" stroke="black" d="M1329.33,-184.5C1330.73,-174 1332.55,-160.39 1334.16,-148.33"/>
<polygon fill="black" stroke="black" points="1337.62,-148.85 1335.47,-138.47 1330.68,-147.92 1337.62,-148.85"/>
</g>
<!-- ChannelRoles::&quot;yihong&#45;announcements&#45;roles&quot;&#45;&gt;Deny::&quot;SendMessage&quot; -->
<g id="edge5" class="edge">
<title>ChannelRoles::&quot;yihong&#45;announcements&#45;roles&quot;&#45;&gt;Deny::&quot;SendMessage&quot;</title>
<path fill="none" stroke="black" d="M1408.2,-184.68C1415.33,-180.52 1421.79,-175.37 1427,-169 1451.11,-139.51 1451.05,-93.42 1447.79,-63.72"/>
<polygon fill="black" stroke="black" points="1451.29,-63.42 1446.52,-53.96 1444.35,-64.33 1451.29,-63.42"/>
</g>
<!-- ChannelRoles::&quot;oflatt&#45;announcements&#45;roles&quot; -->
<g id="node15" class="node">
<title>ChannelRoles::&quot;oflatt&#45;announcements&#45;roles&quot;</title>
<polygon fill="none" stroke="black" points="1596.25,-221 1431.75,-221 1431.75,-185 1596.25,-185 1596.25,-221"/>
<text text-anchor="middle" x="1514" y="-197.95" font-family="Times,serif" font-size="14.00">oflatt&#45;announcements&#45;roles</text>
</g>
<!-- ChannelRoles::&quot;oflatt&#45;announcements&#45;roles&quot;&#45;&gt;ChannelRole::&quot;everyone&#45;announcements&quot; -->
<g id="edge8" class="edge">
<title>ChannelRoles::&quot;oflatt&#45;announcements&#45;roles&quot;&#45;&gt;ChannelRole::&quot;everyone&#45;announcements&quot;</title>
<path fill="none" stroke="black" d="M1476.67,-184.5C1450.07,-172.03 1414.1,-155.17 1385.46,-141.75"/>
<polygon fill="black" stroke="black" points="1387.18,-138.69 1376.64,-137.61 1384.21,-145.03 1387.18,-138.69"/>
</g>
<!-- ChannelRoles::&quot;oflatt&#45;announcements&#45;roles&quot;&#45;&gt;Deny::&quot;SendMessage&quot; -->
<g id="edge7" class="edge">
<title>ChannelRoles::&quot;oflatt&#45;announcements&#45;roles&quot;&#45;&gt;Deny::&quot;SendMessage&quot;</title>
<path fill="none" stroke="black" d="M1506.67,-184.76C1494.39,-155.88 1469.57,-97.5 1454.81,-62.78"/>
<polygon fill="black" stroke="black" points="1458.12,-61.63 1450.99,-53.79 1451.68,-64.36 1458.12,-61.63"/>
</g>
</g>
</svg>
